# xmcd
#
# Track frame offsets:
#	182
#	10300
#	23042
#	38117
#	47815
#	68437
#	81830
#	97132
#	111487
#	125770
#	138272
#	149450
#
# Disc length: 2129
#
# Revision: 4
# Processed by: cddbd v1.5.1PL0 Copyright (c) Steve Scherf et al.
# Submitted via: ExactAudioCopy v0.90b4
# Normalized: r2:DSETVAR1,TDELIM( - ),TSWAP
#
DISCID=a8084f0c
DTITLE=Various Artist - Disney Country Music for Kids
DYEAR=1992
DGENRE=Children's
TTITLE0=Merle Haggard - Bingo
TTITLE1=Herb Pederson - Baby Had A Banjo
TTITLE2=Patty Loveless - So Many Questions, So Little Time
TTITLE3=Jay Levy - There's A Fiddle In The Middle
TTITLE4=Mary Chapin Carpenter - Jenny Dreamed Of Trains
TTITLE5=Chris Hillman - Little Birdie
TTITLE6=Herb Pederson - Clean Room Blues
TTITLE7=Glen Campbell - I Love To Play Outside
TTITLE8=Emmylou Harris - On The Wings Of Horses
TTITLE9=Oak Ridge Boys - Oh, Susanna!
TTITLE10=Buck Owens - If You Can't Find A Reason To Be Happy
TTITLE11=Country Music For Kids Chorus - Country Lullaby
EXTD=
EXTT0=
EXTT1=Banjo - Earl Scruggs
EXTT2=
EXTT3=
EXTT4=
EXTT5=
EXTT6=
EXTT7=
EXTT8=
EXTT9=
EXTT10=
EXTT11=
PLAYORDER=
